<svg width="98" height="98" viewBox="0 0 98 98" fill="none" xmlns="http://www.w3.org/2000/svg">
<g filter="url(#filter0_d_5004_64)">
<path d="M86 38C86 58.4345 69.4345 75 49 75C28.5655 75 12 58.4345 12 38C12 17.5655 28.5655 1 49 1C69.4345 1 86 17.5655 86 38Z" fill="white"/>
</g>
<path d="M58.1667 13H39.8333V28.8333H24V47.1667H39.8333V63H58.1667V47.1667H74V28.8333H58.1667V13ZM70.6667 32.1667V43.8333H54.8333V59.6667H43.1667V43.8333H27.3333V32.1667H43.1667V16.3333H54.8333V32.1667H70.6667Z" fill="#2F78FF"/>
<defs>
<filter id="filter0_d_5004_64" x="0" y="0" width="98" height="98" filterUnits="userSpaceOnUse" color-interpolation-filters="sRGB">
<feFlood flood-opacity="0" result="BackgroundImageFix"/>
<feColorMatrix in="SourceAlpha" type="matrix" values="0 0 0 0 0 0 0 0 0 0 0 0 0 0 0 0 0 0 127 0" result="hardAlpha"/>
<feOffset dy="11"/>
<feGaussianBlur stdDeviation="6"/>
<feColorMatrix type="matrix" values="0 0 0 0 0.0352941 0 0 0 0 0.0588235 0 0 0 0 0.278431 0 0 0 0.1 0"/>
<feBlend mode="normal" in2="BackgroundImageFix" result="effect1_dropShadow_5004_64"/>
<feBlend mode="normal" in="SourceGraphic" in2="effect1_dropShadow_5004_64" result="shape"/>
</filter>
</defs>
</svg>
